# 3ds Max Wavefront OBJ Exporter v0.97b - (c)2007 guruware
# File Created: 08.02.2016 12:31:04

mtllib AC holder.mtl

#
# object Plane001
#

v  -36.4435 0.0000 -0.4938
v  16.0394 0.0000 -0.4938
v  16.0394 0.0000 -8.6933
v  -36.4435 0.0000 -8.6933
v  -39.7296 0.0000 -0.4938
v  -38.7438 0.0000 -0.4938
v  -38.7438 0.0000 -9.8434
v  -39.7296 0.0000 -10.3363
v  19.3255 10.0000 19.1913
v  18.3397 10.0000 18.2054
v  -38.7438 10.0000 18.2054
v  -39.7296 10.0000 19.1913
v  19.3255 0.0000 -0.4938
v  18.3397 0.0000 -0.4938
v  18.3397 0.0000 8.8558
v  19.3255 0.0000 9.3487
v  -39.7296 10.0000 -20.1788
v  -38.7438 10.0000 -19.1930
v  18.3397 10.0000 -19.1930
v  19.3255 10.0000 -20.1788
v  -36.4435 0.0000 13.1720
v  16.0394 0.0000 13.1720
v  16.0394 0.0000 10.4389
v  -36.4435 0.0000 10.4389
v  -36.4435 0.0000 7.7057
v  16.0394 0.0000 7.7057
v  16.0394 0.0000 -14.1596
v  -36.4435 0.0000 -14.1596
v  -36.4435 0.0000 -11.4264
v  16.0394 0.0000 -11.4264
v  -39.7296 10.7874 12.6296
v  -39.7296 10.7874 15.9104
v  -38.7438 10.7874 15.0889
v  -38.7438 10.7874 11.9724
v  -39.7296 0.0000 9.3487
v  -38.7438 0.0000 8.8558
v  -36.4435 10.7874 -14.1596
v  -38.7438 10.7874 -16.0765
v  -38.7438 10.7874 -12.9599
v  -36.4435 10.7874 -11.4264
v  20.6167 14.7244 -13.6171
v  20.6167 14.7244 -16.8980
v  19.6308 14.7244 -16.0765
v  19.6308 14.7244 -12.9599
v  19.3255 0.0000 -10.3363
v  18.3397 0.0000 -9.8434
v  16.0394 10.7874 13.1720
v  18.3397 10.7874 15.0889
v  18.3397 10.7874 11.9724
v  16.0394 10.7874 10.4389
v  19.3255 0.0000 12.6296
v  19.3255 10.0000 12.6296
v  19.3255 10.0000 15.9104
v  19.3255 0.0000 15.9104
v  18.3397 10.0000 8.8558
v  19.3255 10.0000 9.3487
v  16.0394 10.0000 13.1720
v  16.0394 10.0000 10.4389
v  16.0394 0.0000 15.9052
v  -36.4435 0.0000 15.9052
v  -36.4435 10.0000 15.9052
v  16.0394 10.0000 15.9052
v  -36.4435 10.0000 10.4389
v  -36.4435 10.0000 13.1720
v  -38.7438 10.0000 8.8558
v  -36.4435 10.0000 7.7057
v  -39.7296 0.0000 15.9104
v  -39.7296 10.0000 15.9104
v  -39.7296 10.0000 12.6296
v  -39.7296 0.0000 12.6296
v  -39.7296 0.0000 19.1913
v  19.3255 0.0000 19.1913
v  -39.7296 0.0000 -13.6171
v  -39.7296 10.0000 -13.6171
v  -39.7296 10.0000 -16.8980
v  -39.7296 0.0000 -16.8980
v  -38.7438 10.0000 -9.8434
v  -39.7296 10.0000 -10.3363
v  -36.4435 10.0000 -14.1596
v  -36.4435 10.0000 -11.4264
v  -36.4435 0.0000 -16.8927
v  16.0394 0.0000 -16.8927
v  16.0394 10.0000 -16.8927
v  -36.4435 10.0000 -16.8927
v  16.0394 10.0000 -11.4264
v  16.0394 10.0000 -14.1596
v  18.3397 10.0000 -9.8434
v  16.0394 10.0000 -8.6933
v  19.3255 0.0000 -16.8980
v  19.3255 10.0000 -16.8980
v  19.3255 10.0000 -13.6171
v  19.3255 0.0000 -13.6171
v  19.3255 0.0000 -20.1788
v  -39.7296 0.0000 -20.1788
v  -38.7438 10.7874 18.2054
v  -39.7296 10.7874 19.1913
v  -36.4435 10.7874 10.4389
v  -36.4435 10.7874 13.1720
v  -38.7438 10.7874 8.8558
v  -36.4435 10.7874 7.7057
v  -81.0682 10.0000 15.9104
v  -81.0682 10.7874 15.9104
v  -81.0682 10.7874 12.6296
v  -81.0682 10.0000 12.6296
v  -38.7438 10.7874 -19.1930
v  -36.4435 10.7874 -16.8927
v  -81.0682 10.0000 -13.6171
v  -81.0682 10.7874 -13.6171
v  -81.0682 10.7874 -16.8980
v  -81.0682 10.0000 -16.8980
v  -38.7438 10.7874 -9.8434
v  -39.7296 10.7874 -10.3363
v  18.3397 10.7874 -19.1930
v  19.3255 10.7874 -20.1788
v  16.0394 10.7874 -11.4264
v  16.0394 10.7874 -14.1596
v  18.3397 10.7874 -9.8434
v  16.0394 10.7874 -8.6933
v  19.3255 10.7874 -16.8980
v  19.3255 10.7874 -13.6171
v  18.3397 10.7874 18.2054
v  16.0394 10.7874 15.9052
v  19.3255 10.7874 12.6296
v  19.3255 10.7874 15.9104
v  18.3397 10.7874 8.8558
v  19.3255 10.7874 9.3487
v  -39.7296 10.7874 -13.6171
v  -39.7296 10.7874 -16.8980
v  18.3397 10.7874 -12.9599
v  18.3397 10.7874 -16.0765
v  20.6167 14.7244 12.6296
v  19.6308 14.7244 11.9724
v  19.6308 14.7244 15.0889
v  20.6167 14.7244 15.9104
v  16.0394 10.0000 7.7057
v  -39.7296 10.0000 9.3487
v  -36.4435 10.0000 -8.6933
v  19.3255 10.0000 -10.3363
v  -36.4435 10.7874 15.9052
v  -39.7296 10.7874 9.3487
v  -39.7296 10.7874 -20.1788
v  -36.4435 10.7874 -8.6933
v  16.0394 10.7874 -16.8927
v  19.3255 10.7874 -10.3363
v  19.3255 10.7874 19.1913
v  16.0394 10.7874 7.7057
v  18.3397 12.7559 -19.1930
v  19.3255 12.7559 -20.1788
v  18.3397 12.7559 -12.9599
v  18.3397 12.7559 -16.0765
v  19.3255 12.7559 -10.3363
v  18.3397 12.7559 -9.8434
v  19.3255 12.7559 -16.8980
v  19.3255 12.7559 -13.6171
v  19.3255 12.7559 12.6296
v  19.3255 12.7559 15.9104
v  18.3397 12.7559 8.8558
v  19.3255 12.7559 9.3487
v  18.3397 12.7559 15.0889
v  18.3397 12.7559 11.9724
v  19.3255 12.7559 19.1913
v  18.3397 12.7559 18.2054
v  19.2478 14.1404 -19.1930
v  20.2336 14.1404 -20.1788
v  19.7086 13.3400 -20.1788
v  18.7228 13.3400 -19.1930
v  19.7086 13.3400 -10.3363
v  20.2336 14.1404 -10.3363
v  19.2478 14.1404 -9.8434
v  18.7228 13.3400 -9.8434
v  19.2478 14.1404 8.8558
v  20.2336 14.1404 9.3487
v  19.7086 13.3400 9.3487
v  18.7228 13.3400 8.8558
v  19.7086 13.3400 19.1913
v  20.2336 14.1404 19.1913
v  19.2478 14.1404 18.2054
v  18.7228 13.3400 18.2054
v  20.6167 14.7244 -20.1788
v  19.6308 14.7244 -19.1930
v  19.6308 14.7244 -9.8434
v  20.6167 14.7244 -10.3363
v  -79.0997 10.0000 -10.3363
v  -79.0997 10.7874 -10.3363
v  -79.0997 10.7874 -13.6171
v  -79.0997 10.0000 -13.6171
v  -79.0997 10.7874 -20.1788
v  -79.0997 10.0000 -20.1788
v  -79.0997 10.0000 -16.8980
v  -79.0997 10.7874 -16.8980
v  19.2478 14.1404 -13.2885
v  18.7228 13.3400 -13.2885
v  18.7228 13.3400 -16.4872
v  19.2478 14.1404 -16.4872
v  20.2336 14.1404 -16.4872
v  19.7086 13.3400 -16.4872
v  19.7086 13.3400 -13.2885
v  20.2336 14.1404 -13.2885
v  -79.0997 10.0000 19.1913
v  -79.0997 10.7874 19.1913
v  -79.0997 10.7874 15.9104
v  -79.0997 10.0000 15.9104
v  -79.0997 10.7874 9.3487
v  -79.0997 10.0000 9.3487
v  -79.0997 10.0000 12.6296
v  -79.0997 10.7874 12.6296
v  20.6167 14.7244 9.3487
v  19.6308 14.7244 8.8558
v  19.6308 14.7244 18.2054
v  20.6167 14.7244 19.1913
v  20.2336 14.1404 12.3010
v  19.7086 13.3400 12.3010
v  19.7086 13.3400 15.4997
v  20.2336 14.1404 15.4997
v  19.2478 14.1404 15.4997
v  18.7228 13.3400 15.4997
v  18.7228 13.3400 12.3010
v  19.2478 14.1404 12.3010
# 218 vertices

vn 0.0000 1.0000 -0.0000
vn 1.0000 0.0000 -0.0000
vn 0.4472 0.0000 -0.8944
vn -1.0000 0.0000 -0.0000
vn 0.0000 0.0000 -1.0000
vn -0.4472 0.0000 -0.8944
vn 0.0000 0.0000 1.0000
vn -0.4472 0.0000 0.8944
vn 0.4472 0.0000 0.8944
vn 0.7071 0.0000 0.7071
vn 0.7071 0.0000 -0.7071
vn -0.7071 0.0000 -0.7071
vn -0.7071 0.0000 0.7071
vn -0.6415 0.4207 -0.6415
vn 0.4291 -0.2815 0.8583
vn 0.4291 -0.2815 -0.8583
vn -0.6415 0.4207 0.6415
vn -0.8362 0.5485 -0.0000
vn 0.8362 -0.5485 -0.0000
vn 0.0000 -1.0000 -0.0000
# 20 vertex normals

vt 0.0000 0.5000 0.0000
vt 1.0000 0.5000 0.0000
vt 1.0000 0.7500 0.0000
vt 0.0000 0.7500 0.0000
vt 1.0000 0.0000 0.0000
vt 0.0000 0.0000 0.0000
vt 1.0000 0.2500 0.0000
vt 0.0000 1.0000 0.0000
vt 1.0000 1.0000 0.0000
vt 0.0000 0.0833 0.0000
vt 1.0000 0.0833 0.0000
vt 1.0000 0.1667 0.0000
vt 0.0000 0.1667 0.0000
vt 0.0000 0.2500 0.0000
vt 1.0000 0.9167 0.0000
vt 0.0000 0.9167 0.0000
vt 0.0000 0.8333 0.0000
vt 1.0000 0.8333 0.0000
# 18 texture coords

g Plane001
usemtl wire_225088199
s 1
f 1/1/1 2/2/1 3/3/1 4/4/1 
s off
f 5/1/1 6/1/1 7/4/1 8/4/1 
f 9/5/1 10/5/1 11/6/1 12/6/1 
f 13/2/1 14/2/1 15/7/1 16/7/1 
f 17/8/1 18/8/1 19/9/1 20/9/1 
s 1
f 21/10/1 22/11/1 23/12/1 24/13/1 
f 25/14/1 26/7/1 2/2/1 1/1/1 
f 27/15/1 28/16/1 29/17/1 30/18/1 
s off
f 31/13/1 32/10/1 33/10/1 34/13/1 
f 5/1/1 35/14/1 36/14/1 6/1/1 
f 37/16/1 38/16/1 39/17/1 40/17/1 
f 41/18/1 42/15/1 43/15/1 44/18/1 
f 13/2/1 45/3/1 46/3/1 14/2/1 
f 47/11/1 48/11/1 49/12/1 50/12/1 
f 51/12/2 52/12/2 53/11/2 54/11/2 
f 15/7/3 55/7/3 56/7/3 16/7/3 
f 22/11/4 57/11/4 58/12/4 23/12/4 
f 59/5/5 60/6/5 61/6/5 62/5/5 
f 24/13/2 63/13/2 64/10/2 21/10/2 
f 36/14/6 65/14/6 66/14/6 25/14/6 
f 67/10/4 68/10/4 69/13/4 70/13/4 
f 71/6/7 72/5/7 9/5/7 12/6/7 
f 73/17/4 74/17/4 75/16/4 76/16/4 
f 7/4/8 77/4/8 78/4/8 8/4/8 
f 28/16/2 79/16/2 80/17/2 29/17/2 
f 81/8/7 82/9/7 83/9/7 84/8/7 
f 30/18/4 85/18/4 86/15/4 27/15/4 
f 46/3/9 87/3/9 88/3/9 3/3/9 
f 89/15/2 90/15/2 91/18/2 92/18/2 
f 93/9/5 94/8/5 17/8/5 20/9/5 
f 11/6/10 95/6/10 96/6/10 12/6/10 
f 63/13/2 97/13/2 98/10/2 64/10/2 
f 65/14/6 99/14/6 100/14/6 66/14/6 
f 101/10/4 102/10/4 103/13/4 104/13/4 
f 18/8/11 105/8/11 106/8/11 84/8/11 
f 107/17/4 108/17/4 109/16/4 110/16/4 
f 77/4/8 111/4/8 112/4/8 78/4/8 
f 79/16/2 37/16/2 40/17/2 80/17/2 
f 19/9/12 113/9/12 114/9/12 20/9/12 
f 85/18/4 115/18/4 116/15/4 86/15/4 
f 87/3/9 117/3/9 118/3/9 88/3/9 
f 90/15/2 119/15/2 120/18/2 91/18/2 
f 10/5/13 121/5/13 122/5/13 62/5/13 
f 52/12/2 123/12/2 124/11/2 53/11/2 
f 55/7/3 125/7/3 126/7/3 56/7/3 
f 57/11/4 47/11/4 50/12/4 58/12/4 
f 6/1/1 1/1/1 4/4/1 7/4/1 
f 62/5/1 61/6/1 11/6/1 10/5/1 
f 14/2/1 2/2/1 26/7/1 15/7/1 
f 84/8/1 83/9/1 19/9/1 18/8/1 
f 98/10/1 97/13/1 34/13/1 33/10/1 
f 25/14/1 1/1/1 6/1/1 36/14/1 
f 127/17/1 39/17/1 38/16/1 128/16/1 
f 116/15/1 115/18/1 129/18/1 130/15/1 
f 3/3/1 2/2/1 14/2/1 46/3/1 
f 131/12/1 132/12/1 133/11/1 134/11/1 
f 26/7/3 135/7/3 55/7/3 15/7/3 
f 35/14/6 136/14/6 65/14/6 36/14/6 
f 4/4/8 137/4/8 77/4/8 7/4/8 
f 45/3/9 138/3/9 87/3/9 46/3/9 
f 61/6/10 139/6/10 95/6/10 11/6/10 
f 136/14/6 140/14/6 99/14/6 65/14/6 
f 17/8/11 141/8/11 105/8/11 18/8/11 
f 137/4/8 142/4/8 111/4/8 77/4/8 
f 83/9/12 143/9/12 113/9/12 19/9/12 
f 138/3/9 144/3/9 117/3/9 87/3/9 
f 9/5/13 145/5/13 121/5/13 10/5/13 
f 135/7/3 146/7/3 125/7/3 55/7/3 
f 114/9/12 113/9/12 147/9/12 148/9/12 
f 129/18/4 149/18/4 150/15/4 130/15/4 
f 117/3/9 144/3/9 151/3/9 152/3/9 
f 119/15/2 153/15/2 154/18/2 120/18/2 
f 123/12/2 155/12/2 156/11/2 124/11/2 
f 126/7/3 125/7/3 157/7/3 158/7/3 
f 48/11/4 159/11/4 160/12/4 49/12/4 
f 121/5/13 145/5/13 161/5/13 162/5/13 
f 163/9/14 164/9/14 165/9/14 166/9/14 
f 167/3/15 168/3/15 169/3/15 170/3/15 
f 171/7/16 172/7/16 173/7/16 174/7/16 
f 175/5/17 176/5/17 177/5/17 178/5/17 
s 1
f 82/9/1 81/8/1 28/16/1 27/15/1 
f 4/4/1 3/3/1 30/18/1 29/17/1 
s off
f 106/8/1 105/8/1 38/16/1 37/16/1 
f 111/4/1 142/4/1 40/17/1 39/17/1 
f 42/15/1 179/9/1 180/9/1 43/15/1 
f 44/18/1 181/3/1 182/3/1 41/18/1 
f 8/4/4 78/4/4 74/17/4 73/17/4 
f 17/8/4 94/8/4 76/16/4 75/16/4 
f 81/8/2 84/8/2 79/16/2 28/16/2 
f 137/4/2 4/4/2 29/17/2 80/17/2 
f 3/3/4 88/3/4 85/18/4 30/18/4 
f 83/9/4 82/9/4 27/15/4 86/15/4 
f 93/9/2 20/9/2 90/15/2 89/15/2 
f 138/3/2 45/3/2 92/18/2 91/18/2 
f 183/4/4 184/4/4 185/17/4 186/17/4 
f 187/8/4 188/8/4 189/16/4 190/16/4 
f 84/8/2 106/8/2 37/16/2 79/16/2 
f 142/4/2 137/4/2 80/17/2 40/17/2 
f 88/3/4 118/3/4 115/18/4 85/18/4 
f 143/9/4 83/9/4 86/15/4 116/15/4 
f 20/9/2 114/9/2 119/15/2 90/15/2 
f 144/3/2 138/3/2 91/18/2 120/18/2 
f 112/4/1 111/4/1 39/17/1 127/17/1 
f 105/8/1 141/8/1 128/16/1 38/16/1 
f 115/18/1 118/3/1 117/3/1 129/18/1 
f 130/15/1 113/9/1 143/9/1 116/15/1 
f 117/3/4 152/3/4 149/18/4 129/18/4 
f 147/9/4 113/9/4 130/15/4 150/15/4 
f 114/9/2 148/9/2 153/15/2 119/15/2 
f 151/3/2 144/3/2 120/18/2 154/18/2 
f 169/3/18 191/18/18 192/18/18 170/3/18 
f 166/9/18 193/15/18 194/15/18 163/9/18 
f 164/9/19 195/15/19 196/15/19 165/9/19 
f 167/3/19 197/18/19 198/18/19 168/3/19 
s 1
f 60/6/1 59/5/1 22/11/1 21/10/1 
f 26/7/1 25/14/1 24/13/1 23/12/1 
s off
f 32/10/1 96/6/1 95/6/1 33/10/1 
f 34/13/1 99/14/1 140/14/1 31/13/1 
f 122/5/1 121/5/1 48/11/1 47/11/1 
f 125/7/1 146/7/1 50/12/1 49/12/1 
f 16/7/2 56/7/2 52/12/2 51/12/2 
f 9/5/2 72/5/2 54/11/2 53/11/2 
f 59/5/4 62/5/4 57/11/4 22/11/4 
f 135/7/4 26/7/4 23/12/4 58/12/4 
f 25/14/2 66/14/2 63/13/2 24/13/2 
f 61/6/2 60/6/2 21/10/2 64/10/2 
f 71/6/4 12/6/4 68/10/4 67/10/4 
f 136/14/4 35/14/4 70/13/4 69/13/4 
f 66/14/2 100/14/2 97/13/2 63/13/2 
f 139/6/2 61/6/2 64/10/2 98/10/2 
f 199/6/4 200/6/4 201/10/4 202/10/4 
f 203/14/4 204/14/4 205/13/4 206/13/4 
f 56/7/2 126/7/2 123/12/2 52/12/2 
f 145/5/2 9/5/2 53/11/2 124/11/2 
f 62/5/4 122/5/4 47/11/4 57/11/4 
f 146/7/4 135/7/4 58/12/4 50/12/4 
f 97/13/1 100/14/1 99/14/1 34/13/1 
f 33/10/1 95/6/1 139/6/1 98/10/1 
f 207/7/1 208/7/1 132/12/1 131/12/1 
f 209/5/1 210/5/1 134/11/1 133/11/1 
f 126/7/2 158/7/2 155/12/2 123/12/2 
f 161/5/2 145/5/2 124/11/2 156/11/2 
f 121/5/4 162/5/4 159/11/4 48/11/4 
f 157/7/4 125/7/4 49/12/4 160/12/4 
f 172/7/19 211/12/19 212/12/19 173/7/19 
f 175/5/19 213/11/19 214/11/19 176/5/19 
f 177/5/18 215/11/18 216/11/18 178/5/18 
f 174/7/18 217/12/18 218/12/18 171/7/18 
f 180/9/14 179/9/14 164/9/14 163/9/14 
f 148/9/14 147/9/14 166/9/14 165/9/14 
f 44/18/18 43/15/18 194/15/18 191/18/18 
f 150/15/18 149/18/18 192/18/18 193/15/18 
f 168/3/15 182/3/15 181/3/15 169/3/15 
f 170/3/15 152/3/15 151/3/15 167/3/15 
f 42/15/19 41/18/19 198/18/19 195/15/19 
f 154/18/19 153/15/19 196/15/19 197/18/19 
f 181/3/18 44/18/18 191/18/18 169/3/18 
f 149/18/18 152/3/18 170/3/18 192/18/18 
f 147/9/18 150/15/18 193/15/18 166/9/18 
f 43/15/18 180/9/18 163/9/18 194/15/18 
f 179/9/19 42/15/19 195/15/19 164/9/19 
f 153/15/19 148/9/19 165/9/19 196/15/19 
f 151/3/19 154/18/19 197/18/19 167/3/19 
f 41/18/19 182/3/19 168/3/19 198/18/19 
f 131/12/19 134/11/19 214/11/19 211/12/19 
f 156/11/19 155/12/19 212/12/19 213/11/19 
f 208/7/16 207/7/16 172/7/16 171/7/16 
f 158/7/16 157/7/16 174/7/16 173/7/16 
f 133/11/18 132/12/18 218/12/18 215/11/18 
f 160/12/18 159/11/18 216/11/18 217/12/18 
f 176/5/17 210/5/17 209/5/17 177/5/17 
f 178/5/17 162/5/17 161/5/17 175/5/17 
f 207/7/19 131/12/19 211/12/19 172/7/19 
f 155/12/19 158/7/19 173/7/19 212/12/19 
f 161/5/19 156/11/19 213/11/19 175/5/19 
f 134/11/19 210/5/19 176/5/19 214/11/19 
f 209/5/18 133/11/18 215/11/18 177/5/18 
f 159/11/18 162/5/18 178/5/18 216/11/18 
f 157/7/18 160/12/18 217/12/18 174/7/18 
f 132/12/18 208/7/18 171/7/18 218/12/18 
s 1
f 218/12/7 217/12/7 212/12/7 211/12/7 
s 2
f 216/11/1 213/11/1 212/12/1 217/12/1 
s 1
f 215/11/5 214/11/5 213/11/5 216/11/5 
s 2
f 215/11/20 218/12/20 211/12/20 214/11/20 
s 1
f 197/18/5 192/18/5 191/18/5 198/18/5 
s 2
f 197/18/1 196/15/1 193/15/1 192/18/1 
s 1
f 196/15/7 195/15/7 194/15/7 193/15/7 
s 2
f 198/18/20 191/18/20 194/15/20 195/15/20 
s off
f 136/14/20 69/13/20 205/13/20 204/14/20 
f 69/13/20 68/10/20 202/10/20 205/13/20 
f 68/10/20 12/6/20 199/6/20 202/10/20 
f 12/6/7 96/6/7 200/6/7 199/6/7 
f 96/6/1 32/10/1 201/10/1 200/6/1 
f 32/10/1 31/13/1 206/13/1 201/10/1 
f 31/13/1 140/14/1 203/14/1 206/13/1 
f 17/8/20 75/16/20 189/16/20 188/8/20 
f 75/16/20 74/17/20 186/17/20 189/16/20 
f 74/17/20 78/4/20 183/4/20 186/17/20 
f 112/4/1 127/17/1 185/17/1 184/4/1 
f 127/17/1 128/16/1 190/16/1 185/17/1 
f 128/16/1 141/8/1 187/8/1 190/16/1 
f 141/8/5 17/8/5 188/8/5 187/8/5 
s 1
f 140/14/2 136/14/2 78/4/2 112/4/2 
s 2
f 136/14/20 204/14/20 183/4/20 78/4/20 
s 1
f 204/14/4 203/14/4 184/4/4 183/4/4 
s 2
f 203/14/1 140/14/1 112/4/1 184/4/1 
s off
f 202/10/7 201/10/7 102/10/7 101/10/7 
f 201/10/1 206/13/1 103/13/1 102/10/1 
f 206/13/5 205/13/5 104/13/5 103/13/5 
f 205/13/20 202/10/20 101/10/20 104/13/20 
f 186/17/7 185/17/7 108/17/7 107/17/7 
f 185/17/1 190/16/1 109/16/1 108/17/1 
f 190/16/5 189/16/5 110/16/5 109/16/5 
f 189/16/20 186/17/20 107/17/20 110/16/20 
# 214 polygons

